<svg width="150" height="32" viewBox="0 0 150 32" fill="none" xmlns="http://www.w3.org/2000/svg">
<path d="M23.0078 18.9609C23.0078 19.638 22.8385 20.2161 22.5 20.6953C22.1667 21.1693 21.6979 21.5312 21.0938 21.7812C20.4896 22.0312 19.7786 22.1562 18.9609 22.1562C18.5286 22.1562 18.1198 22.1354 17.7344 22.0938C17.349 22.0521 16.9948 21.9922 16.6719 21.9141C16.349 21.8359 16.0651 21.7396 15.8203 21.625V20.3516C16.2109 20.513 16.6875 20.6641 17.25 20.8047C17.8125 20.9401 18.401 21.0078 19.0156 21.0078C19.5885 21.0078 20.0729 20.9323 20.4688 20.7812C20.8646 20.625 21.1641 20.4036 21.3672 20.1172C21.5755 19.8255 21.6797 19.4766 21.6797 19.0703C21.6797 18.6797 21.5938 18.3542 21.4219 18.0938C21.25 17.8281 20.9635 17.5885 20.5625 17.375C20.1667 17.1562 19.625 16.9245 18.9375 16.6797C18.4531 16.5078 18.026 16.3203 17.6562 16.1172C17.2865 15.9089 16.9766 15.6745 16.7266 15.4141C16.4766 15.1536 16.2865 14.8516 16.1562 14.5078C16.0312 14.1641 15.9688 13.7708 15.9688 13.3281C15.9688 12.7188 16.1224 12.1979 16.4297 11.7656C16.7422 11.3281 17.1719 10.9948 17.7188 10.7656C18.2708 10.5312 18.9036 10.4141 19.6172 10.4141C20.2266 10.4141 20.7891 10.4714 21.3047 10.5859C21.8255 10.7005 22.3021 10.8542 22.7344 11.0469L22.3203 12.1875C21.9089 12.0156 21.4714 11.8724 21.0078 11.7578C20.5495 11.6432 20.0755 11.5859 19.5859 11.5859C19.0964 11.5859 18.6823 11.6589 18.3438 11.8047C18.0104 11.9453 17.7552 12.1458 17.5781 12.4062C17.401 12.6667 17.3125 12.9766 17.3125 13.3359C17.3125 13.737 17.3958 14.0703 17.5625 14.3359C17.7344 14.6016 18.0052 14.8385 18.375 15.0469C18.75 15.25 19.2448 15.4635 19.8594 15.6875C20.5312 15.9323 21.1016 16.1927 21.5703 16.4688C22.0391 16.7396 22.3958 17.0729 22.6406 17.4688C22.8854 17.8594 23.0078 18.3568 23.0078 18.9609ZM28.5781 22.1562C27.8073 22.1562 27.1276 21.9974 26.5391 21.6797C25.9505 21.362 25.4922 20.8776 25.1641 20.2266C24.8359 19.5755 24.6719 18.7552 24.6719 17.7656C24.6719 16.7292 24.8438 15.8828 25.1875 15.2266C25.5365 14.5651 26.0156 14.0755 26.625 13.7578C27.2344 13.4401 27.9271 13.2812 28.7031 13.2812C29.1302 13.2812 29.5417 13.3255 29.9375 13.4141C30.3385 13.4974 30.6667 13.6042 30.9219 13.7344L30.5312 14.8203C30.2708 14.7161 29.9688 14.6224 29.625 14.5391C29.2865 14.4557 28.9688 14.4141 28.6719 14.4141C28.0781 14.4141 27.5833 14.5417 27.1875 14.7969C26.7969 15.0521 26.5026 15.4271 26.3047 15.9219C26.112 16.4167 26.0156 17.026 26.0156 17.75C26.0156 18.4427 26.1094 19.0339 26.2969 19.5234C26.4896 20.013 26.7734 20.388 27.1484 20.6484C27.5286 20.9036 28.0026 21.0312 28.5703 21.0312C29.0234 21.0312 29.4323 20.9844 29.7969 20.8906C30.1615 20.7917 30.4922 20.6771 30.7891 20.5469V21.7031C30.5026 21.849 30.1823 21.9609 29.8281 22.0391C29.4792 22.1172 29.0625 22.1562 28.5781 22.1562ZM36.7109 13.2812C36.8828 13.2812 37.0625 13.2917 37.25 13.3125C37.4375 13.3281 37.6042 13.3516 37.75 13.3828L37.5859 14.5859C37.4453 14.5495 37.2891 14.5208 37.1172 14.5C36.9453 14.4792 36.7839 14.4688 36.6328 14.4688C36.2891 14.4688 35.9635 14.5391 35.6562 14.6797C35.3542 14.8151 35.0885 15.013 34.8594 15.2734C34.6302 15.5286 34.4505 15.8385 34.3203 16.2031C34.1901 16.5625 34.125 16.9635 34.125 17.4062V22H32.8203V13.4375H33.8984L34.0391 15.0156H34.0938C34.2708 14.6979 34.4844 14.4089 34.7344 14.1484C34.9844 13.8828 35.2734 13.6719 35.6016 13.5156C35.9349 13.3594 36.3047 13.2812 36.7109 13.2812ZM46.75 17.7031C46.75 18.4062 46.6589 19.0339 46.4766 19.5859C46.2943 20.138 46.0312 20.6042 45.6875 20.9844C45.3438 21.3646 44.9271 21.6562 44.4375 21.8594C43.9531 22.0573 43.4036 22.1562 42.7891 22.1562C42.2161 22.1562 41.6901 22.0573 41.2109 21.8594C40.737 21.6562 40.3255 21.3646 39.9766 20.9844C39.6328 20.6042 39.3646 20.138 39.1719 19.5859C38.9844 19.0339 38.8906 18.4062 38.8906 17.7031C38.8906 16.7656 39.0495 15.9688 39.3672 15.3125C39.6849 14.651 40.138 14.1484 40.7266 13.8047C41.3203 13.4557 42.026 13.2812 42.8438 13.2812C43.625 13.2812 44.3073 13.4557 44.8906 13.8047C45.4792 14.1536 45.9349 14.6589 46.2578 15.3203C46.5859 15.9766 46.75 16.7708 46.75 17.7031ZM40.2344 17.7031C40.2344 18.3906 40.3255 18.987 40.5078 19.4922C40.6901 19.9974 40.9714 20.388 41.3516 20.6641C41.7318 20.9401 42.2214 21.0781 42.8203 21.0781C43.4141 21.0781 43.901 20.9401 44.2812 20.6641C44.6667 20.388 44.9505 19.9974 45.1328 19.4922C45.3151 18.987 45.4062 18.3906 45.4062 17.7031C45.4062 17.0208 45.3151 16.4323 45.1328 15.9375C44.9505 15.4375 44.6693 15.0521 44.2891 14.7812C43.9089 14.5104 43.4167 14.375 42.8125 14.375C41.9219 14.375 41.2682 14.6693 40.8516 15.2578C40.4401 15.8464 40.2344 16.6615 40.2344 17.7031ZM50.2969 22H48.9922V9.84375H50.2969V22ZM54.3438 22H53.0391V9.84375H54.3438V22ZM64.9453 22H63.6094V11.75H60.0156V10.5781H68.5234V11.75H64.9453V22ZM77.4375 17.7031C77.4375 18.4062 77.3464 19.0339 77.1641 19.5859C76.9818 20.138 76.7188 20.6042 76.375 20.9844C76.0312 21.3646 75.6146 21.6562 75.125 21.8594C74.6406 22.0573 74.0911 22.1562 73.4766 22.1562C72.9036 22.1562 72.3776 22.0573 71.8984 21.8594C71.4245 21.6562 71.013 21.3646 70.6641 20.9844C70.3203 20.6042 70.0521 20.138 69.8594 19.5859C69.6719 19.0339 69.5781 18.4062 69.5781 17.7031C69.5781 16.7656 69.737 15.9688 70.0547 15.3125C70.3724 14.651 70.8255 14.1484 71.4141 13.8047C72.0078 13.4557 72.7135 13.2812 73.5312 13.2812C74.3125 13.2812 74.9948 13.4557 75.5781 13.8047C76.1667 14.1536 76.6224 14.6589 76.9453 15.3203C77.2734 15.9766 77.4375 16.7708 77.4375 17.7031ZM70.9219 17.7031C70.9219 18.3906 71.013 18.987 71.1953 19.4922C71.3776 19.9974 71.6589 20.388 72.0391 20.6641C72.4193 20.9401 72.9089 21.0781 73.5078 21.0781C74.1016 21.0781 74.5885 20.9401 74.9688 20.6641C75.3542 20.388 75.638 19.9974 75.8203 19.4922C76.0026 18.987 76.0938 18.3906 76.0938 17.7031C76.0938 17.0208 76.0026 16.4323 75.8203 15.9375C75.638 15.4375 75.3568 15.0521 74.9766 14.7812C74.5964 14.5104 74.1042 14.375 73.5 14.375C72.6094 14.375 71.9557 14.6693 71.5391 15.2578C71.1276 15.8464 70.9219 16.6615 70.9219 17.7031ZM87.5391 22H86.2031V11.75H82.6094V10.5781H91.1172V11.75H87.5391V22ZM100.031 17.7031C100.031 18.4062 99.9401 19.0339 99.7578 19.5859C99.5755 20.138 99.3125 20.6042 98.9688 20.9844C98.625 21.3646 98.2083 21.6562 97.7188 21.8594C97.2344 22.0573 96.6849 22.1562 96.0703 22.1562C95.4974 22.1562 94.9714 22.0573 94.4922 21.8594C94.0182 21.6562 93.6068 21.3646 93.2578 20.9844C92.9141 20.6042 92.6458 20.138 92.4531 19.5859C92.2656 19.0339 92.1719 18.4062 92.1719 17.7031C92.1719 16.7656 92.3307 15.9688 92.6484 15.3125C92.9661 14.651 93.4193 14.1484 94.0078 13.8047C94.6016 13.4557 95.3073 13.2812 96.125 13.2812C96.9062 13.2812 97.5885 13.4557 98.1719 13.8047C98.7604 14.1536 99.2161 14.6589 99.5391 15.3203C99.8672 15.9766 100.031 16.7708 100.031 17.7031ZM93.5156 17.7031C93.5156 18.3906 93.6068 18.987 93.7891 19.4922C93.9714 19.9974 94.2526 20.388 94.6328 20.6641C95.013 20.9401 95.5026 21.0781 96.1016 21.0781C96.6953 21.0781 97.1823 20.9401 97.5625 20.6641C97.9479 20.388 98.2318 19.9974 98.4141 19.4922C98.5964 18.987 98.6875 18.3906 98.6875 17.7031C98.6875 17.0208 98.5964 16.4323 98.4141 15.9375C98.2318 15.4375 97.9505 15.0521 97.5703 14.7812C97.1901 14.5104 96.6979 14.375 96.0938 14.375C95.2031 14.375 94.5495 14.6693 94.1328 15.2578C93.7214 15.8464 93.5156 16.6615 93.5156 17.7031ZM106.297 13.2812C107.365 13.2812 108.216 13.6484 108.852 14.3828C109.487 15.1172 109.805 16.2214 109.805 17.6953C109.805 18.6693 109.659 19.487 109.367 20.1484C109.076 20.8099 108.664 21.3099 108.133 21.6484C107.607 21.987 106.984 22.1562 106.266 22.1562C105.812 22.1562 105.414 22.0964 105.07 21.9766C104.727 21.8568 104.432 21.6953 104.188 21.4922C103.943 21.2891 103.74 21.0677 103.578 20.8281H103.484C103.5 21.0312 103.518 21.276 103.539 21.5625C103.565 21.849 103.578 22.099 103.578 22.3125V25.8281H102.273V13.4375H103.344L103.516 14.7031H103.578C103.745 14.4427 103.948 14.2057 104.188 13.9922C104.427 13.7734 104.719 13.6016 105.062 13.4766C105.411 13.3464 105.823 13.2812 106.297 13.2812ZM106.07 14.375C105.477 14.375 104.997 14.4896 104.633 14.7188C104.273 14.9479 104.01 15.2917 103.844 15.75C103.677 16.2031 103.589 16.7734 103.578 17.4609V17.7109C103.578 18.4349 103.656 19.0469 103.812 19.5469C103.974 20.0469 104.237 20.4271 104.602 20.6875C104.971 20.9479 105.466 21.0781 106.086 21.0781C106.617 21.0781 107.06 20.9349 107.414 20.6484C107.768 20.362 108.031 19.9635 108.203 19.4531C108.38 18.9375 108.469 18.3464 108.469 17.6797C108.469 16.6693 108.271 15.8672 107.875 15.2734C107.484 14.6745 106.883 14.375 106.07 14.375Z" fill="white"/>
<path d="M129.977 15.5039C129.812 15.668 129.594 15.75 129.375 15.75C129.129 15.75 128.91 15.668 128.746 15.5039L125.875 12.6328V21C125.875 21.4922 125.465 21.875 125 21.875C124.562 21.875 124.125 21.4922 124.125 21V12.6328L121.227 15.5039C120.898 15.8594 120.324 15.8594 119.996 15.5039C119.641 15.1758 119.641 14.6016 119.996 14.2734L124.371 9.89844C124.699 9.54297 125.273 9.54297 125.602 9.89844L129.977 14.2734C130.332 14.6016 130.332 15.1758 129.977 15.5039Z" fill="white"/>
</svg>
